<?xml version="1.0" encoding="utf-8"?>
<!-- This work is licensed under the Creative Commons Attribution-NonCommercial-NoDerivatives 4.0 International License. To view a copy of this license, visit http://creativecommons.org/licenses/by-nc-nd/4.0/ or send a letter to Creative Commons, PO Box 1866, Mountain View, CA 94042, USA.  -->
<svg version="1.1" id="Layer_1" xmlns="http://www.w3.org/2000/svg" xmlns:xlink="http://www.w3.org/1999/xlink" x="0px" y="0px"
	 viewBox="0 0 2000 1198" style="enable-background:new 0 0 2000 1198;" xml:space="preserve">
<style type="text/css">
	.st0{fill:#FFFFFF;}
</style>
<rect class="st0" width="2000" height="1198"/>
<g>
	<g>
		<path d="M952,563.2c0,0,6.6,12.1,12.2,20.4c1.5,2.2,4.6,6.6,8.4,11.9l0,0c10.6,14.7,26.7,36.4,27.4,37.3c0,0,0,0,0,0v0l0,0l0,0v0
			c0,0,0,0,0,0c0.7-0.9,16.7-22.6,27.4-37.3l0,0c3.8-5.3,7-9.7,8.4-11.9c5.6-8.3,12.2-20.4,12.2-20.4c8.5-18.2,9.7-35.4,8.2-49.3
			c2.9-2.9,1.8-9.8,0-10.7c-0.5-0.2-1.1-0.6-1.9-0.9c-0.4-1.6-0.8-3.2-1.2-4.7c-1.1-0.1-2.1-0.3-3.1-0.8c-7.6-3.6-19.3-2.1-19.3-2.1
			s-3.9,0.9-4.8-1c-0.4-0.8-0.1-1.7,0.4-2.3c0.7-0.8,1.7-1.4,2.7-1.6c10.2-2,17.7-0.2,22.1,1.5c-2.3-6.5-4.4-10.2-4.4-10.2
			s-12.4-23.1-20.6-51.5c-8.2-28.3-26.1-53.2-26.1-53.2v0l0,0l0,0v0c0,0-17.9,24.9-26.1,53.2c-8.2,28.4-20.6,51.5-20.6,51.5
			s-2.1,3.7-4.4,10.2c4.4-1.7,11.9-3.5,22.1-1.5c1.1,0.2,2.1,0.7,2.7,1.6c0.5,0.6,0.9,1.5,0.4,2.3c-1,1.9-4.8,1-4.8,1
			s-11.7-1.5-19.3,2.1c-1,0.5-2,0.7-3.1,0.8c-0.4,1.5-0.8,3.1-1.2,4.7c-0.8,0.3-1.4,0.6-1.9,0.9c-1.8,0.9-2.9,7.8,0,10.7
			C942.3,527.8,943.5,545,952,563.2z M1000,626.8c0,0-17.3-15.4-25.1-32.8l9.2,8.5c0,0,4.1,14.3,15.9,22.5v0c0,0,0,0,0,0
			c0,0,0,0,0,0v0c11.8-8.2,15.9-22.5,15.9-22.5l9.2-8.5C1017.3,611.3,1000,626.7,1000,626.8z M985.9,572.5c1-0.5,2.6,0.7,3.4,2.7
			c0.8,1.9,0.7,3.9-0.4,4.3c-1,0.5-2.6-0.7-3.4-2.7C984.7,574.9,984.9,572.9,985.9,572.5z M1010.6,575.1c0.9-1.9,2.4-3.1,3.4-2.7
			c1,0.5,1.2,2.4,0.4,4.3c-0.9,1.9-2.4,3.1-3.4,2.7C1009.9,579,1009.8,577.1,1010.6,575.1z M967.8,498.7c12,0,21.8,13.3,21.8,29.8
			c0,0.3,0,0.7,0,1c0.2-0.2,4.5-3.8,10.5-3.9c5.9,0.1,10.3,3.7,10.5,3.9c0-0.3,0-0.7,0-1c0-16.4,9.8-29.8,21.8-29.8
			c3.5,0,6.8,1.1,9.7,3.1c1.8,2.8,5.7,8.6,9,11.4c2,4.5,3.1,9.7,3.1,15.2c0,16.4-9.8,29.8-21.8,29.8c-10.6,0-19.5-10.4-21.4-24.2
			c-5-2.3-9.6-2.5-10.8-2.5l0,0c0,0,0,0,0,0s0,0,0,0l0,0c-1.2,0-5.8,0.2-10.8,2.5c-1.9,13.8-10.8,24.2-21.4,24.2
			c-12,0-21.8-13.3-21.8-29.8c0-5.6,1.1-10.8,3.1-15.2c3.4-2.8,7.2-8.6,9-11.4C961,499.8,964.3,498.7,967.8,498.7z"/>
		<path d="M968.5,553.6c4.1,0,7.5-3.3,7.5-7.5c0-4.1-3.3-7.5-7.5-7.5c-4.1,0-7.5,3.3-7.5,7.5C961,550.3,964.4,553.6,968.5,553.6z
			 M970.5,546.7c1.2,0,2.2,1,2.2,2.2c0,1.2-1,2.2-2.2,2.2c-1.2,0-2.2-1-2.2-2.2C968.2,547.7,969.2,546.7,970.5,546.7z"/>
		<path d="M978.9,612.6c-1.4-0.1-2.8-0.1-3.9-0.1c-2.8,0-5.9,0.2-7.6,0.4c-3,0.3-4.8,1.9-5.7,3.1c-0.1,0.1-0.2,0.2-0.2,0.3
			c-11.5-0.6-19.9-4.5-25.5-12c-0.9-1.2-1.7-2.4-2.4-3.7c11.3-2,25-4.5,32.8-5.2c0.7,0.9,1.4,2,2.2,3l0.2,0.3
			C971.9,603,975.4,607.8,978.9,612.6z"/>
		<path d="M1109.4,636.7c-5.6,1.8-11.5,2.7-17.3,2.7h0c-2.7,0-5.3-0.2-8-0.6c-24.5-3.5-27.3,7.5-27.3,7.5l-19.6,2.2l-1.7-1.8h-71
			l-1.7,1.8l-19.6-2.2c0,0-2.8-11-27.3-7.5c-2.7,0.4-5.3,0.6-8,0.6h0c-5.9,0-11.7-0.8-17.3-2.7c-9-3-17.9-7.9-15.5-15.4
			c2-6.1,8.1-10,15.3-12.6c0,0,0,0,0,0c9.5-3.4,20.8-4.5,26.7-5.3c10,24,35.9,27.9,51.4,27.9c4.1,0,7.4-0.3,9.5-0.5
			c2.8-0.3,6.8-1,9-4c0.4-0.6,0.8-1.2,1-1.8c2.9,4,5.3,7.2,6.7,9.1l5.2,6.5l5.2-6.5c4.1-5.5,16.9-23,26-35.4l0.2-0.3
			c0.8-1.1,1.5-2.1,2.2-3c12.7,1.3,41.1,6.9,49.1,8c5.9,0.8,17.3,1.8,26.8,5.3c0,0,0,0,0,0c7.2,2.6,13.3,6.5,15.3,12.6
			C1127.3,628.7,1118.4,633.7,1109.4,636.7z"/>
		<path d="M979.9,651.6h-13.2l-1.9,2.1l-26-2.9l-0.4-3.2c-0.4-0.7-3-4.6-13.6-4.6c-2.5,0-5.2,0.2-8.2,0.6c-2.9,0.4-5.8,0.6-8.7,0.6
			h-0.4c-6.4,0-12.6-1-18.5-2.9c-20.2-6.7-20.4-16.5-18.7-21.7c0.8-2.4,2-4.5,3.7-6.5c-8.2,3.9-16.9,11-19.8,23.9
			c-6,26.4,15.7,63.9,15.7,63.9s6.2,18.4,3.7,31.1s55.2,21.5,60.2-3.5c2.2-11,9.4-26.1,17.8-40.2c0.3-0.5,0.6-1.1,1-1.6
			C962.3,670.8,973.3,656.4,979.9,651.6z"/>
		<path d="M1031.5,553.6c4.1,0,7.5-3.3,7.5-7.5c0-4.1-3.3-7.5-7.5-7.5c-4.1,0-7.5,3.3-7.5,7.5C1024,550.3,1027.4,553.6,1031.5,553.6
			z M1029.5,546.7c1.2,0,2.2,1,2.2,2.2c0,1.2-1,2.2-2.2,2.2c-1.2,0-2.2-1-2.2-2.2C1027.3,547.7,1028.3,546.7,1029.5,546.7z"/>
		<path d="M1043.1,698.8c-12.4,8.8-24.7-22.3-24.7-22.3H1000h0h-18.4c0,0-12.3,31-24.7,22.3c-3.2-2.3-4.4-6.7-4.3-12.1
			c-0.3,0.5-0.7,1.1-1,1.6c1.2,16.7,1.3,32.5,4.6,40.2c3.6,8.6,25.9,8.1,43.8,6.3c17.9,1.8,40.1,2.2,43.8-6.3
			c3.3-7.7,3.5-23.5,4.6-40.2c-0.3-0.5-0.6-1.1-1-1.6C1047.5,692.1,1046.3,696.6,1043.1,698.8z"/>
		<path d="M1145.7,637.1c-2.9-12.9-11.7-20-19.8-23.9c1.7,2,2.9,4.1,3.7,6.5c1.7,5.2,1.5,15-18.7,21.7c-5.9,1.9-12.1,2.9-18.5,2.9
			h-0.4c-2.9,0-5.8-0.2-8.7-0.6c-2.9-0.4-5.7-0.6-8.2-0.6c-10.6,0-13.2,3.9-13.6,4.6l-0.4,3.2l-26,2.9l-1.9-2.1h-13.2
			c6.6,4.8,17.6,19.2,27.3,35.2c0.3,0.5,0.6,1.1,1,1.6c8.4,14.1,15.6,29.2,17.8,40.2c5,25.1,62.7,16.2,60.2,3.5
			c-2.5-12.7,3.7-31.1,3.7-31.1S1151.7,663.4,1145.7,637.1z"/>
		<rect x="992.6" y="652.1" width="14.9" height="3"/>
		<circle cx="1009.5" cy="648.8" r="1.5"/>
		<path d="M969.9,455.4c0,0-42.8,1.7-44,15.9c-1.2,14.2,2.7,2.5,2,38.6c-0.7,36.1,3.5,51.5,3.5,51.5h5.1l-3-3c0,0-5.1-80.9,1.3-83.6
			c6.5-2.7,26.2-5.5,26.2-5.5L969.9,455.4z"/>
		<path d="M945.1,559.7h-1.3v1.7h-5.1l-2.8-3l-2.7-46.8c0,0,0.8-2.2,3.9-2.4c0.1,1.8,0.5,4,1.6,6
			C937.3,530.6,939.5,545.5,945.1,559.7z"/>
		<path d="M1028.8,455.4c0,0,42.8,1.7,44,15.9c1.2,14.2-2.7,2.5-2,38.6c0.7,36.1-3.5,51.5-3.5,51.5h-5.1l3-3c0,0,5.1-80.9-1.3-83.6
			c-6.5-2.7-26.2-5.5-26.2-5.5L1028.8,455.4z"/>
		<path d="M1065.5,511.6l-2.7,46.8l-2.8,3h-5.1v-1.5c5.6-14.2,7.8-29.2,6.5-44.6c1.1-1.9,1.5-4,1.6-5.8
			C1064.9,510.1,1065.5,511.6,1065.5,511.6z"/>
		<path d="M922.8,541h3.7c0,0-22.4,80.7,38.7,80.3c0,0-0.5-3.1,2.9-3.5c3.4-0.4,14.9-1,15.2,1.5s2.2,5.7-5.6,6.5
			c-7.8,0.7-49.9,4.2-58.1-31.6C911.3,558.4,922.8,541,922.8,541z"/>
	</g>
	<g>
		<path d="M832.3,769.2h19.3c10.8,0,18.6,6.7,18.6,16.6c0,9.8-7.8,16.7-18.6,16.7h-8.8v18.2h-10.5V769.2z M851.6,793.3
			c4.9,0,7.8-3,7.8-7.5c0-4.4-3-7.3-7.8-7.3h-8.8v14.8H851.6z"/>
		<path d="M898,778.7h-16.5v-9.5h43.5v9.5h-16.5v42H898V778.7z"/>
		<path d="M939.8,769.2h34.6v9.5h-24.1v10.5h17.7v9h-17.7v13h25v9.5h-35.6V769.2z"/>
		<path d="M1023.9,820.6l-13.3-18.2h-7.7v18.2h-10.5v-51.5h19.3c10.8,0,18.6,6.7,18.6,16.6c0,6.6-3.4,11.9-9,14.7l14.6,20.2H1023.9z
			 M1002.8,793.2h8.8c4.9,0,7.8-3,7.8-7.4c0-4.4-3-7.3-7.8-7.3h-8.8V793.2z"/>
		<path d="M1073.2,768.2c14.8-0.3,27.7,11.9,27.5,26.7c0.2,14.7-12.6,27-27.5,26.7c-14.8,0.3-27.5-11.9-27.3-26.7
			C1045.7,780.2,1058.4,767.9,1073.2,768.2z M1073.3,778c-9.5,0-16.5,7-16.5,16.9c0,9.9,7,16.9,16.5,16.9c9.4,0,16.5-7,16.5-16.9
			C1089.8,785.1,1082.7,778,1073.3,778z"/>
		<path d="M1167.7,768.2v52.4h-10.5v-27.5l-12.9,16.2h-3.4l-12.9-16.2v27.5h-10.5v-52.4h3.4l21.8,27.8l21.8-27.8H1167.7z"/>
	</g>
</g>
</svg>
